<svg xmlns="http://www.w3.org/2000/svg" xmlns:xlink="http://www.w3.org/1999/xlink" version="1.1" x="0px" y="0px" viewBox="0 0 500 625" enable-background="new 0 0 500 500" xml:space="preserve"><g><g><path d="M250.5,456.045c-64.822,0-117.555-52.733-117.555-117.556V160.571c0-64.822,52.733-117.556,117.555-117.556    c64.821,0,117.556,52.733,117.556,117.556v177.918C368.056,403.312,315.321,456.045,250.5,456.045z M250.5,55.724    c-57.813,0-104.847,47.034-104.847,104.847v177.918c0,57.816,47.034,104.848,104.847,104.848    c57.81,0,104.847-47.031,104.847-104.848V160.571C355.347,102.758,308.31,55.724,250.5,55.724z"/></g><path d="M263.209,162.963c0,7.019-5.691,12.709-12.709,12.709l0,0c-7.019,0-12.708-5.69-12.708-12.709v-12.709   c0-7.019,5.69-12.708,12.708-12.708l0,0c7.018,0,12.709,5.69,12.709,12.708V162.963z"/></g><text x="0" y="515" fill="#000000" font-size="5px" font-weight="bold" font-family="'Helvetica Neue', Helvetica, Arial-Unicode, Arial, Sans-serif">Created by Vladimir Rancic</text><text x="0" y="520" fill="#000000" font-size="5px" font-weight="bold" font-family="'Helvetica Neue', Helvetica, Arial-Unicode, Arial, Sans-serif">from the Noun Project</text></svg>